<?xml version="1.0" standalone="no"?>
<!DOCTYPE svg PUBLIC "-//W3C//DTD SVG 20010904//EN"
 "http://www.w3.org/TR/2001/REC-SVG-20010904/DTD/svg10.dtd">
<svg version="1.0" xmlns="http://www.w3.org/2000/svg"
 width="839.000000pt" height="216.000000pt" viewBox="0 0 839.000000 216.000000"
 preserveAspectRatio="xMidYMid meet">

<g transform="translate(0.000000,216.000000) scale(0.100000,-0.100000)"
fill="#000000" stroke="none">
<path d="M2750 1460 l0 -630 110 0 110 0 0 98 0 98 63 62 c34 34 65 62 69 62
3 0 53 -72 112 -160 l107 -160 129 0 130 0 -84 122 c-46 68 -122 179 -170 248
l-86 125 162 162 163 163 -134 0 -134 0 -127 -129 c-70 -71 -140 -145 -155
-165 -15 -20 -31 -36 -36 -36 -5 0 -9 170 -9 385 l0 385 -110 0 -110 0 0 -630z"/>
<path d="M7392 1463 l3 -628 108 -3 107 -3 0 106 0 106 52 55 c41 44 54 52 64
42 6 -7 51 -71 99 -143 48 -71 96 -138 107 -147 28 -25 254 -27 245 -3 -4 8
-75 116 -158 240 l-152 226 30 32 c16 18 49 54 74 81 24 28 76 83 114 124 103
109 106 102 -38 102 l-125 0 -93 -98 c-52 -54 -119 -128 -149 -165 -30 -36
-58 -66 -62 -66 -5 -1 -8 172 -8 384 l0 385 -110 0 -110 0 2 -627z"/>
<path d="M580 1950 c-188 -33 -300 -150 -300 -316 0 -118 57 -207 170 -264 50
-25 262 -100 283 -100 18 0 111 -51 123 -68 18 -23 17 -77 -1 -111 -45 -88
-259 -88 -453 0 -63 28 -81 30 -83 6 0 -7 -15 -43 -34 -82 -23 -48 -30 -74
-23 -82 15 -18 149 -71 220 -87 272 -62 498 7 585 178 22 43 26 65 26 133 0
69 -4 91 -27 137 -45 92 -116 135 -330 200 -187 57 -226 83 -226 153 0 35 6
49 26 68 64 59 201 59 357 0 55 -20 101 -35 103 -32 2 2 19 43 38 90 l34 86
-22 14 c-29 19 -137 54 -221 72 -75 16 -172 18 -245 5z"/>
<path d="M1323 1903 c-10 -3 -13 -39 -13 -129 l0 -124 -80 0 -81 0 3 -87 3
-88 76 -3 76 -3 7 -72 c3 -40 6 -146 6 -237 -1 -166 6 -210 40 -256 45 -59
147 -91 258 -79 110 12 112 13 112 94 0 101 0 101 -81 101 -110 0 -109 -3
-109 245 l0 205 100 0 100 0 0 90 0 90 -99 0 -98 0 -6 83 c-4 45 -7 101 -7
123 0 38 -2 42 -31 48 -37 7 -158 7 -176 -1z"/>
<path d="M4628 1783 l-3 -128 -78 -3 -78 -3 3 -87 3 -87 78 -3 77 -3 0 -233
c0 -247 4 -276 48 -335 39 -53 98 -73 210 -73 52 0 112 4 133 7 l39 7 0 92 0
93 -73 -5 c-67 -4 -75 -2 -103 21 l-29 25 -3 201 -4 201 106 0 106 0 0 90 0
89 -102 3 -103 3 -3 128 -3 127 -109 0 -109 0 -3 -127z"/>
<path d="M2105 1664 c-90 -13 -225 -59 -225 -76 0 -6 12 -42 27 -80 23 -59 30
-69 48 -65 11 3 49 13 85 22 82 22 212 23 262 2 48 -20 68 -53 75 -122 l6 -57
-59 9 c-93 13 -243 8 -304 -10 -112 -33 -170 -110 -170 -224 1 -107 36 -168
125 -216 34 -19 56 -22 155 -22 106 0 119 2 173 28 31 16 57 33 57 38 0 5 5 9
10 9 6 0 10 -16 10 -35 l0 -35 106 0 105 0 -3 318 -3 317 -30 54 c-35 63 -87
105 -159 127 -50 15 -232 27 -291 18z m203 -496 c71 -21 79 -92 17 -147 -63
-55 -189 -56 -237 -1 -74 82 16 179 152 162 19 -2 50 -8 68 -14z"/>
<path d="M3895 1657 c-145 -37 -241 -127 -281 -262 -12 -45 -15 -85 -12 -174
3 -104 7 -123 35 -181 49 -104 135 -176 245 -206 71 -19 217 -18 297 2 73 18
171 68 171 88 0 20 -61 127 -75 132 -7 3 -30 -3 -52 -14 -100 -51 -230 -53
-311 -6 -33 19 -50 39 -67 77 -13 28 -22 54 -20 57 2 4 135 5 295 2 l290 -5 0
89 c0 146 -29 225 -113 312 -68 69 -131 93 -257 98 -57 2 -115 -2 -145 -9z
m205 -192 c39 -20 70 -67 73 -109 l2 -35 -167 -5 c-93 -3 -169 -2 -172 3 -8
12 21 91 42 114 9 11 31 26 47 33 41 18 139 17 175 -1z"/>
<path d="M5995 1664 c-58 -9 -160 -38 -197 -56 l-37 -18 33 -75 c18 -41 35
-77 37 -80 3 -2 39 7 80 22 98 34 227 38 279 7 43 -24 70 -75 70 -133 0 -42
-1 -43 -27 -37 -16 3 -71 9 -123 12 -114 8 -238 -18 -295 -61 -117 -90 -111
-297 12 -375 61 -39 102 -50 189 -50 82 0 150 18 204 54 l39 25 3 -32 3 -32
108 -3 107 -3 0 228 c-1 285 -11 406 -39 461 -51 101 -137 142 -306 147 -60 2
-123 1 -140 -1z m215 -503 c30 -14 35 -22 38 -54 3 -33 -2 -43 -35 -77 -33
-32 -47 -39 -97 -45 -112 -14 -170 23 -164 106 3 47 31 75 89 89 44 10 125 1
169 -19z"/>
<path d="M5547 1645 c-57 -16 -87 -34 -133 -83 l-34 -36 0 62 0 62 -95 0 -95
0 0 -410 0 -410 110 0 110 0 0 203 c0 335 33 401 207 415 l64 5 -3 101 -3 101
-40 2 c-22 1 -62 -4 -88 -12z"/>
<path d="M6850 1642 c-113 -38 -212 -128 -251 -230 -27 -72 -36 -193 -19 -284
22 -125 125 -244 243 -281 82 -26 182 -31 263 -14 68 15 186 66 199 86 6 10
-60 151 -71 151 -2 0 -23 -9 -45 -20 -50 -26 -155 -39 -221 -29 -29 5 -65 19
-85 35 -51 38 -67 83 -67 184 0 107 25 161 94 200 65 36 181 35 261 -1 l55
-26 38 85 c44 99 45 95 -53 133 -80 31 -263 37 -341 11z"/>
<path d="M330 510 c0 -20 7 -20 665 -20 658 0 665 0 665 20 0 20 -7 20 -665
20 -658 0 -665 0 -665 -20z"/>
<path d="M1928 440 c-21 -16 -28 -30 -28 -55 0 -35 11 -49 50 -59 58 -17 80
-29 80 -47 0 -29 -43 -34 -89 -12 -37 18 -39 19 -50 1 -16 -25 -15 -27 24 -44
67 -28 156 -9 170 37 14 43 -2 67 -60 88 -31 12 -60 21 -65 21 -6 0 -10 9 -10
19 0 24 45 36 83 22 23 -9 28 -7 38 10 6 11 8 23 6 26 -3 2 -32 7 -64 10 -49
4 -62 2 -85 -17z"/>
<path d="M2130 441 c0 -16 8 -20 38 -23 l37 -3 3 -102 c3 -102 3 -103 27 -103
24 0 24 1 27 103 l3 102 38 3 c29 3 37 7 37 23 0 18 -8 19 -105 19 -97 0 -105
-1 -105 -19z"/>
<path d="M2421 344 c-28 -64 -51 -120 -51 -125 0 -20 41 -7 52 16 11 24 20 27
78 27 51 0 61 -4 72 -27 7 -16 19 -25 35 -25 12 0 23 3 23 8 0 4 -25 59 -55
122 -45 95 -59 116 -78 118 -22 3 -29 -8 -76 -114z m107 -6 c12 -28 11 -28
-28 -28 -22 0 -40 2 -40 5 0 2 8 20 17 40 18 39 29 35 51 -17z"/>
<path d="M2692 338 c3 -119 4 -123 26 -126 19 -3 22 1 22 31 0 22 7 41 21 53
21 19 21 18 45 -11 14 -17 33 -40 44 -52 10 -13 30 -23 45 -23 30 0 31 -2 -33
88 l-44 64 48 49 48 49 -30 0 c-25 0 -41 -11 -80 -55 -27 -30 -52 -55 -56 -55
-5 0 -8 25 -8 55 0 52 -1 55 -25 55 l-26 0 3 -122z"/>
<path d="M2980 345 c0 -63 0 -118 0 -122 0 -5 40 -9 90 -11 l90 -3 0 26 c0 24
-2 25 -65 25 l-65 0 0 30 0 30 60 0 c53 0 60 2 60 20 0 18 -7 20 -60 20 l-60
0 0 30 0 30 65 0 c58 0 65 2 65 20 0 19 -7 20 -90 20 l-90 0 0 -115z"/>
<path d="M3240 336 l0 -126 25 0 c23 0 25 3 25 50 l0 50 55 0 55 0 0 -50 c0
-47 2 -50 25 -50 l25 0 0 126 c0 124 0 125 -22 122 -20 -3 -23 -10 -26 -49 -3
-52 -13 -59 -74 -51 -36 4 -37 5 -40 51 -3 39 -6 46 -25 49 -23 3 -23 2 -23
-122z"/>
<path d="M3579 437 c-69 -46 -72 -151 -5 -202 61 -46 168 -28 201 35 62 120
-82 244 -196 167z m126 -42 c52 -51 21 -145 -47 -145 -71 0 -107 105 -52 149
35 28 69 26 99 -4z"/>
<path d="M3860 336 l0 -126 90 0 c83 0 90 2 90 20 0 16 -8 19 -62 22 l-63 3
-5 100 c-5 94 -6 100 -27 103 -23 3 -23 2 -23 -122z"/>
<path d="M4100 336 l0 -126 74 0 c59 0 79 4 107 23 57 38 74 98 45 156 -24 46
-60 63 -147 68 l-79 6 0 -127z m163 54 c11 -10 19 -33 20 -54 1 -51 -28 -79
-85 -80 l-43 -1 -3 82 -3 83 48 -6 c26 -4 56 -14 66 -24z"/>
<path d="M4410 335 l0 -125 73 0 c90 0 119 8 115 29 -3 13 -16 16 -68 16 l-65
0 -3 33 -3 32 60 0 c54 0 61 2 61 20 0 18 -7 20 -60 20 l-60 0 0 30 0 30 71 0
c62 0 70 2 67 18 -3 14 -17 17 -96 20 l-92 3 0 -126z"/>
<path d="M4678 454 c-3 -5 -5 -31 -4 -59 6 -201 4 -187 29 -183 17 2 23 11 25
36 3 27 7 32 30 32 20 0 33 -10 50 -35 15 -25 30 -35 47 -35 30 0 31 7 5 40
-25 31 -25 35 0 60 30 30 27 90 -6 121 -21 20 -38 24 -98 27 -41 2 -76 0 -78
-4z m127 -44 c22 -8 26 -15 23 -42 -3 -32 -5 -33 -49 -36 -46 -3 -47 -3 -51
31 -2 19 -2 40 0 46 5 14 42 14 77 1z"/>
<path d="M5072 338 c3 -119 4 -123 26 -126 21 -3 22 0 22 75 l1 78 32 -60 c45
-83 63 -84 104 -3 l32 63 0 -72 c1 -71 2 -73 26 -73 l25 0 0 120 0 120 -25 0
c-21 0 -31 -12 -66 -81 -22 -45 -42 -79 -44 -78 -1 2 -21 38 -43 79 -33 61
-45 76 -66 78 l-27 3 3 -123z"/>
<path d="M5447 347 c-26 -62 -47 -118 -47 -124 0 -23 40 -14 51 11 13 28 30
34 84 30 29 -2 45 -9 61 -29 14 -17 29 -26 43 -23 20 3 19 7 -24 98 -25 52
-49 107 -54 122 -8 22 -16 28 -38 28 -26 -1 -31 -8 -76 -113z m112 -34 c1 -9
-9 -11 -31 -6 -18 3 -34 7 -36 8 -2 1 5 22 14 46 l18 43 17 -40 c10 -21 18
-45 18 -51z"/>
<path d="M5712 338 l3 -123 25 0 c25 0 25 1 21 73 -1 39 1 72 6 72 5 0 32 -31
61 -70 40 -54 58 -70 77 -70 l25 0 0 120 0 120 -25 0 c-23 0 -24 -3 -27 -72
l-3 -73 -59 73 c-43 52 -67 72 -83 72 -24 0 -24 0 -21 -122z"/>
<path d="M6060 393 c-40 -87 -70 -161 -70 -173 0 -15 28 -12 42 5 34 41 42 45
81 45 35 0 46 -5 68 -31 16 -20 32 -30 46 -27 20 3 18 9 -32 123 -46 104 -57
120 -79 123 -22 3 -29 -4 -56 -65z m58 -81 c-16 -2 -32 -1 -34 1 -3 2 3 24 12
47 l17 43 18 -44 17 -44 -30 -3z"/>
<path d="M6344 441 c-46 -28 -64 -60 -64 -109 0 -38 6 -50 39 -83 34 -34 44
-39 85 -39 83 0 124 36 114 101 -2 16 -11 25 -25 27 -19 3 -23 -3 -29 -37 -6
-41 -7 -41 -50 -41 -50 0 -71 17 -80 65 -13 70 51 114 117 81 29 -15 33 -15
45 2 20 26 -5 45 -68 49 -40 3 -60 -1 -84 -16z"/>
<path d="M6592 338 l3 -123 80 -1 c99 -1 115 3 115 27 0 17 -8 19 -70 19 l-70
0 0 30 0 30 61 0 c52 0 60 2 57 18 -3 14 -16 18 -66 20 -62 3 -63 3 -60 30 3
25 7 27 53 29 28 1 58 2 68 2 10 1 17 9 17 21 0 19 -7 20 -95 20 l-96 0 3
-122z"/>
<path d="M6860 336 l0 -126 25 0 c23 0 24 3 27 73 l3 72 27 -51 c29 -55 52
-79 67 -70 6 4 22 29 37 56 15 27 31 47 35 44 5 -3 9 -32 9 -65 0 -57 1 -60
23 -57 21 3 22 7 25 126 l3 122 -25 0 c-20 0 -32 -12 -59 -59 -19 -32 -38 -68
-42 -80 -3 -11 -9 -21 -13 -21 -4 0 -25 35 -47 78 -34 64 -45 78 -68 80 l-27
3 0 -125z"/>
<path d="M7224 447 c-2 -7 -3 -62 -2 -123 l3 -109 95 0 c88 0 95 1 95 20 0 18
-6 20 -67 17 l-68 -2 0 35 0 35 61 0 c52 0 60 2 57 18 -2 13 -16 18 -63 22
-56 5 -60 7 -60 30 0 23 3 25 55 27 30 1 61 2 68 2 6 1 12 10 12 21 0 19 -7
20 -90 20 -66 0 -92 -4 -96 -13z"/>
<path d="M7490 335 l0 -126 27 3 c27 3 28 3 26 81 -1 42 -1 77 1 77 1 0 31
-36 65 -80 40 -52 69 -80 81 -80 19 0 20 8 20 125 l0 125 -25 0 c-23 0 -24 -3
-27 -75 l-3 -75 -55 73 c-42 54 -62 73 -83 75 l-27 3 0 -126z"/>
<path d="M7770 440 c0 -17 7 -20 40 -20 l39 0 3 -102 c3 -102 3 -103 28 -103
25 0 25 1 28 103 l3 102 39 0 c33 0 40 3 40 20 0 19 -7 20 -110 20 -103 0
-110 -1 -110 -20z"/>
</g>
</svg>
